<svg width="70" height="55" viewBox="0 0 70 55" fill="none" xmlns="http://www.w3.org/2000/svg">
<path d="M40.1255 50.8644L42.6639 54.7695C60.2371 42.9564 70 28.605 70 16.7918C70 5.36926 61.6039 -0.000340242 54.477 -0.000340865C45.4951 -0.00034165 39.1492 7.61472 39.1492 15.6203C39.1492 22.3567 43.4449 28.1168 49.205 30.2647C50.8647 30.8504 52.4268 31.3386 52.4268 34.1698C52.4268 37.7821 49.7908 43.1517 40.1255 50.8644ZM1.36681 50.8644L3.90516 54.7695C21.2831 42.9564 31.2413 28.605 31.2413 16.7918C31.2413 5.36925 22.6499 -0.000343648 15.523 -0.000344271C6.44352 -0.000345064 4.1224e-06 7.61472 3.42253e-06 15.6203C2.83362e-06 22.3567 4.39331 28.1168 10.3487 30.2646C12.0084 30.8504 13.4728 31.3386 13.4728 34.1698C13.4728 37.7821 10.7392 43.1517 1.36681 50.8644Z" fill="#0D73BB"/>
</svg>
