<svg width="23" height="23" viewBox="0 0 23 23" fill="none" xmlns="http://www.w3.org/2000/svg">
<path d="M21.4362 17.7112C21.4362 18.0796 21.3543 18.4582 21.1803 18.8266C21.0064 19.195 20.7812 19.543 20.4845 19.8704C19.983 20.4231 19.4304 20.8222 18.8062 21.078C18.1922 21.3338 17.527 21.4669 16.8107 21.4669C15.7668 21.4669 14.6514 21.2213 13.4746 20.7198C12.2977 20.2184 11.1209 19.543 9.95425 18.6936C8.77741 17.834 7.66196 16.8823 6.59769 15.8282C5.54364 14.764 4.59193 13.6485 3.74256 12.4819C2.90342 11.3153 2.22801 10.1487 1.73681 8.99231C1.2456 7.8257 1 6.71026 1 5.64598C1 4.9501 1.1228 4.28493 1.3684 3.67093C1.61401 3.04669 2.00288 2.47361 2.54525 1.96194C3.20019 1.31724 3.91653 1 4.6738 1C4.96034 1 5.24687 1.0614 5.50271 1.1842C5.76878 1.307 6.00415 1.4912 6.18835 1.75727L8.56251 5.10361C8.74671 5.35944 8.87974 5.59481 8.97184 5.81995C9.06394 6.03485 9.11511 6.24975 9.11511 6.44419C9.11511 6.68979 9.04348 6.93539 8.90021 7.17076C8.76718 7.40613 8.57274 7.65173 8.32714 7.89733L7.5494 8.70577C7.43683 8.81834 7.38566 8.95138 7.38566 9.11511C7.38566 9.19698 7.3959 9.26861 7.41636 9.35048C7.44706 9.43235 7.47776 9.49375 7.49823 9.55515C7.68243 9.89285 7.99967 10.3329 8.44994 10.865C8.91044 11.3972 9.40165 11.9395 9.93379 12.4819C10.4864 13.0243 11.0185 13.5257 11.5609 13.9862C12.093 14.4365 12.5331 14.7435 12.881 14.9277C12.9322 14.9482 12.9936 14.9789 13.0652 15.0096C13.1471 15.0403 13.229 15.0505 13.3211 15.0505C13.495 15.0505 13.6281 14.9891 13.7406 14.8765L14.5184 14.109C14.7742 13.8532 15.0198 13.6588 15.2552 13.536C15.4905 13.3927 15.7259 13.3211 15.9817 13.3211C16.1762 13.3211 16.3808 13.362 16.606 13.4541C16.8311 13.5462 17.0665 13.6792 17.3223 13.8532L20.7096 16.258C20.9757 16.4422 21.1599 16.6572 21.2724 16.913C21.3748 17.1688 21.4362 17.4247 21.4362 17.7112Z" stroke="#0D73BB" stroke-width="1.38" stroke-miterlimit="10"/>
<path d="M17.8851 8.16324C17.8851 7.54924 17.4042 6.60776 16.6878 5.84026C16.0329 5.13415 15.163 4.58154 14.3034 4.58154" stroke="#0D73BB" stroke-width="1.38" stroke-linecap="round" stroke-linejoin="round"/>
<path d="M21.4669 8.1634C21.4669 4.20306 18.2638 1 14.3035 1" stroke="#0D73BB" stroke-width="1.38" stroke-linecap="round" stroke-linejoin="round"/>
</svg>
