<svg width="22" height="22" viewBox="0 0 22 22" fill="none" xmlns="http://www.w3.org/2000/svg">
<path d="M15.9341 5.97804L20.9122 8.24079V20.0071L14.5765 17.2918M14.5765 17.2918L7.33569 20.0071M14.5765 17.2918V10.9561M7.33569 20.0071L1 17.2918V5.52549L5.52549 7.33569M7.33569 20.0071V10.9561M10.9561 14.8233C10.9561 14.8233 5.52549 10.5035 5.52549 6.43059C5.52549 3.03647 8.24079 1 10.9561 1C13.6714 1 16.3867 3.03647 16.3867 6.43059C16.3867 10.5035 10.9561 14.8233 10.9561 14.8233ZM11.8612 6.43059C11.8612 5.93067 11.456 5.52549 10.9561 5.52549C10.4562 5.52549 10.051 5.93067 10.051 6.43059C10.051 6.93051 10.4562 7.33569 10.9561 7.33569C11.456 7.33569 11.8612 6.93051 11.8612 6.43059Z" stroke="#0D73BB" stroke-width="1.38"/>
</svg>
