<svg width="25" height="25" viewBox="0 0 25 25" fill="none" xmlns="http://www.w3.org/2000/svg">
<path d="M22.126 4.14844H2.76575C2.39899 4.14844 2.04725 4.29413 1.78791 4.55347C1.52857 4.81281 1.38287 5.16455 1.38287 5.53131V19.3601C1.38287 19.7268 1.52857 20.0786 1.78791 20.3379C2.04725 20.5973 2.39899 20.743 2.76575 20.743H22.126C22.4928 20.743 22.8445 20.5973 23.1039 20.3379C23.3632 20.0786 23.5089 19.7268 23.5089 19.3601V5.53131C23.5089 5.16455 23.3632 4.81281 23.1039 4.55347C22.8445 4.29413 22.4928 4.14844 22.126 4.14844ZM21.0612 19.3601H3.91354L8.75361 14.3541L7.75794 13.393L2.76575 18.558V6.5823L11.3603 15.1354C11.6194 15.393 11.9699 15.5375 12.3353 15.5375C12.7006 15.5375 13.0511 15.393 13.3102 15.1354L22.126 6.36796V18.4681L17.037 13.3791L16.0621 14.3541L21.0612 19.3601ZM3.67154 5.53131H21.0059L12.3353 14.1536L3.67154 5.53131Z" fill="#0D73BB"/>
</svg>
