<svg width="38" height="12" viewBox="0 0 38 12" fill="none" xmlns="http://www.w3.org/2000/svg">
<path d="M16.6821 11.3152H14.9466V0.00378418H19.3085C21.6225 0.00378418 23.0919 1.35121 23.0919 3.47354C23.1256 4.17704 22.9293 4.87238 22.5327 5.45452C22.1361 6.03666 21.5608 6.47398 20.8936 6.70041L23.4275 11.3268H21.4027L19.0887 6.97799H16.6821V11.3152ZM16.6821 5.53226H19.1465C20.5002 5.53226 21.2812 4.79205 21.2812 3.49667C21.2812 2.2013 20.454 1.46686 19.1003 1.46686H16.6821V5.53226Z" fill="#0D73BB"/>
<path d="M26.3026 5.65956C26.3026 2.1898 28.258 0.00964355 31.3125 0.00964355C33.7943 0.00964355 35.6686 1.53633 35.9405 3.8148H34.2571C34.1199 3.13976 33.7462 2.53583 33.2032 2.11176C32.6602 1.68768 31.9835 1.47132 31.2951 1.50163C29.3109 1.50163 28.0208 3.13242 28.0208 5.66534C28.0208 8.19826 29.2935 9.83483 31.3067 9.83483C31.9671 9.88853 32.6252 9.70737 33.165 9.32331C33.7048 8.93925 34.0916 8.37696 34.2571 7.73563H35.9463C35.5298 9.99097 33.8174 11.321 31.3183 11.321C28.2464 11.3153 26.3026 9.14666 26.3026 5.65956Z" fill="#0D73BB"/>
<path d="M9.58966 0.0153105H11.464C10.9896 1.5073 9.64751 3.55446 9.24834 5.65944C9.72272 8.27911 11.0822 10.3263 11.4814 11.3094H9.64751C9.21363 10.6964 8.4905 9.67858 8.06241 9.0945C7.50319 10.5711 6.32497 11.3094 4.52775 11.3094C3.89962 11.327 3.27612 11.197 2.70742 10.9298C2.13872 10.6626 1.64069 10.2658 1.25341 9.7711C0.36797 8.57839 -0.0720535 7.11355 0.00962847 5.63053C0.00962847 3.83782 0.426151 2.45571 1.2592 1.47261C1.66094 0.991772 2.16758 0.609358 2.7402 0.354732C3.31281 0.100105 3.93619 -0.0199635 4.56246 0.00374655C5.28992 -0.0286913 6.01123 0.150062 6.63929 0.518426C7.24054 0.928848 7.749 1.46076 8.13183 2.07981C8.27646 1.87163 8.94752 0.917446 9.58966 0.0153105ZM4.87485 1.53044C4.46768 1.51867 4.06409 1.60942 3.70119 1.79435C3.33828 1.97927 3.0277 2.25243 2.79802 2.58871C2.23434 3.50334 1.9676 4.56991 2.03439 5.6421C1.97769 6.70814 2.22869 7.76801 2.75752 8.69548C2.96769 9.04074 3.26469 9.32492 3.61892 9.51973C3.97316 9.71454 4.37227 9.81317 4.7765 9.8058C5.18964 9.80678 5.59688 9.7079 5.96354 9.51759C6.33019 9.32729 6.64538 9.05119 6.88226 8.71283C7.50461 7.78449 7.80163 6.67615 7.72687 5.56114C7.80289 4.4977 7.52639 3.43885 6.94011 2.54823C6.70193 2.2235 6.38859 1.96129 6.0269 1.78404C5.66521 1.60678 5.26595 1.51977 4.86328 1.53044H4.87485Z" fill="#0D73BB"/>
<path d="M37.1496 11.3036C37.6193 11.3036 38 10.923 38 10.4535C38 9.98399 37.6193 9.60339 37.1496 9.60339C36.6799 9.60339 36.2992 9.98399 36.2992 10.4535C36.2992 10.923 36.6799 11.3036 37.1496 11.3036Z" fill="#0D73BB"/>
<path d="M25.3076 11.3036C25.7773 11.3036 26.158 10.923 26.158 10.4535C26.158 9.98399 25.7773 9.60339 25.3076 9.60339C24.838 9.60339 24.4572 9.98399 24.4572 10.4535C24.4572 10.923 24.838 11.3036 25.3076 11.3036Z" fill="#0D73BB"/>
<path d="M13.107 11.3036C13.5766 11.3036 13.9574 10.923 13.9574 10.4535C13.9574 9.98399 13.5766 9.60339 13.107 9.60339C12.6373 9.60339 12.2566 9.98399 12.2566 10.4535C12.2566 10.923 12.6373 11.3036 13.107 11.3036Z" fill="#0D73BB"/>
</svg>
