<svg width="229" height="37" viewBox="0 0 229 37" fill="none" xmlns="http://www.w3.org/2000/svg">
<path fill-rule="evenodd" clip-rule="evenodd" d="M17.4969 0.739258C7.83374 0.739258 0 8.56822 0 18.2255C0 27.8828 7.83374 35.7118 17.4969 35.7118C27.1601 35.7118 34.9939 27.8828 34.9939 18.2255C34.9939 8.56822 27.1601 0.739258 17.4969 0.739258ZM23.383 10.6579H21.3224C20.1832 10.6579 18.9879 11.3624 18.9879 12.6091V15.9702H23.2188L22.5137 20.4155H18.9879V31.4174H14.2147V20.4155H10.2025V15.9702H14.2162V12.6635C14.2162 9.35679 16.1694 6.59212 19.6952 6.8091L23.383 6.97163V10.6579Z" fill="white"/>
<path fill-rule="evenodd" clip-rule="evenodd" d="M71.0914 9.00488H60.9053C59.8027 9.00653 58.7457 9.445 57.9661 10.2242C57.1864 11.0034 56.7477 12.0597 56.746 13.1616V23.2879C56.7475 24.3899 57.1861 25.4464 57.9658 26.2258C58.7455 27.0051 59.8025 27.4437 60.9053 27.4454H71.0914C72.1942 27.4439 73.2514 27.0054 74.0312 26.226C74.8109 25.4466 75.2495 24.39 75.2507 23.2879V13.1616C75.2493 12.0596 74.8106 11.0032 74.0309 10.224C73.2512 9.44473 72.1941 9.00632 71.0914 9.00488ZM66.0248 24.3004H65.9719C62.6655 24.3004 59.9458 21.5785 59.9458 18.2251C59.9458 14.9207 62.6655 12.1491 65.9719 12.1491H66.0248C69.3312 12.1491 72.1046 14.9207 72.1046 18.2251C72.1046 21.5824 69.3312 24.3004 66.0248 24.3004ZM71.998 13.5349C71.8273 13.5391 71.6574 13.5091 71.4985 13.4468C71.3396 13.3844 71.1947 13.2909 71.0725 13.1717C70.9503 13.0525 70.8531 12.9101 70.7868 12.7528C70.7205 12.5956 70.6863 12.4267 70.6863 12.256C70.6863 12.0853 70.7205 11.9164 70.7868 11.7592C70.8531 11.6019 70.9503 11.4595 71.0725 11.3403C71.1947 11.2211 71.3396 11.1276 71.4985 11.0652C71.6574 11.0029 71.8273 10.9729 71.998 10.9771C72.1687 10.9729 72.3385 11.0029 72.4975 11.0652C72.6564 11.1276 72.8012 11.2211 72.9235 11.3403C73.0457 11.4595 73.1428 11.6019 73.2091 11.7592C73.2754 11.9164 73.3096 12.0853 73.3096 12.256C73.3096 12.4267 73.2754 12.5956 73.2091 12.7528C73.1428 12.9101 73.0457 13.0525 72.9235 13.1717C72.8012 13.2909 72.6564 13.3844 72.4975 13.4468C72.3385 13.5091 72.1687 13.5391 71.998 13.5349Z" fill="white"/>
<path fill-rule="evenodd" clip-rule="evenodd" d="M66.0248 14.23H65.9719C63.7853 14.23 61.9722 16.042 61.9722 18.2273C61.9722 20.4655 63.7853 22.2775 65.9719 22.2775H66.0248C68.2115 22.2775 70.0246 20.4655 70.0246 18.2273C70.0246 16.0397 68.2115 14.23 66.0248 14.23Z" fill="white"/>
<path fill-rule="evenodd" clip-rule="evenodd" d="M65.9985 0.739258C56.3353 0.739258 48.5015 8.56822 48.5015 18.2255C48.5015 27.8828 56.3353 35.7118 65.9985 35.7118C75.6617 35.7118 83.4954 27.8828 83.4954 18.2255C83.4954 8.56822 75.6609 0.739258 65.9985 0.739258ZM77.1705 23.3419C77.1705 26.6463 74.4509 29.3643 71.1445 29.3643H60.8525C57.5461 29.3643 54.8264 26.6424 54.8264 23.3419V13.1091C54.8264 9.80474 57.5461 7.08673 60.8525 7.08673H71.1476C74.454 7.08673 77.1736 9.80863 77.1736 13.1091L77.1705 23.3419Z" fill="white"/>
<path fill-rule="evenodd" clip-rule="evenodd" d="M163.001 1.25586C153.338 1.25586 145.505 9.08482 145.505 18.7421C145.505 28.3994 153.338 36.2284 163.001 36.2284C172.665 36.2284 180.496 28.3994 180.496 18.7413C180.496 9.08327 172.665 1.25586 163.001 1.25586ZM163.001 29.8039C161.316 29.8039 159.743 29.4672 158.338 28.7929L152.439 29.8039L153.225 23.9643L153.169 23.8523C152.051 21.7098 151.665 19.2605 152.07 16.8782C152.475 14.496 153.649 12.3115 155.413 10.6583C157.176 9.0051 159.432 7.97386 161.837 7.72198C164.242 7.47009 166.663 8.01139 168.731 9.26327C170.799 10.5151 172.401 12.4089 173.291 14.6554C174.181 16.902 174.312 19.378 173.663 21.7057C173.014 24.0333 171.62 26.0848 169.695 27.547C167.77 29.0092 165.419 29.8018 163.001 29.8039Z" fill="white"/>
<path fill-rule="evenodd" clip-rule="evenodd" d="M163.002 9.47773C160.544 9.4802 158.187 10.457 156.449 12.1937C154.712 13.9305 153.734 16.2853 153.731 18.7415C153.731 20.5947 154.293 22.2792 155.192 23.7389L155.079 24.5812L154.855 26.2664L154.686 27.5574L156.035 27.3326L157.608 27.0519L158.563 26.8839C159.922 27.6279 161.449 28.0143 162.998 28.0069C164.223 28.0181 165.438 27.7867 166.572 27.3261C167.707 26.8656 168.739 26.1849 169.609 25.3234C170.479 24.462 171.169 23.4369 171.641 22.3072C172.112 21.1776 172.354 19.9658 172.354 18.7419C172.354 17.518 172.112 16.3063 171.641 15.1766C171.169 14.047 170.479 13.0218 169.609 12.1604C168.739 11.2989 167.707 10.6183 166.572 10.1577C165.438 9.6971 164.223 9.46574 162.998 9.47695L163.002 9.47773ZM168.06 22.8415L167.554 23.459C166.823 24.358 166.205 24.414 165.25 24.1892C161.598 23.235 158.901 20.6515 157.721 17.0018C157.328 15.602 157.89 14.4184 159.069 13.6889C159.687 13.2954 160.081 13.5761 160.305 14.1944L160.867 15.6541C160.867 15.6541 161.261 16.4404 160.249 17.2266C160.081 17.3386 160.081 17.3386 160.137 17.6193C160.362 18.2936 161.261 20.3148 164.126 21.8873C164.407 22.0552 164.464 22.0552 164.745 21.8305L165.475 21.101C165.98 20.6515 166.261 20.4835 166.711 20.8203C167.048 21.045 167.385 21.3258 167.723 21.5497C168.059 21.8305 168.621 22.168 168.059 22.8415H168.06Z" fill="white"/>
<path fill-rule="evenodd" clip-rule="evenodd" d="M211.503 1.25586C201.84 1.25586 194.006 9.08482 194.006 18.7421C194.006 28.3994 201.84 36.2284 211.503 36.2284C221.166 36.2284 229 28.3994 229 18.7413C229 9.08327 221.166 1.25586 211.503 1.25586ZM205.712 28.4562H201.771V15.2355H205.712V28.4562ZM203.718 13.2913C202.404 13.2913 201.383 12.222 201.383 10.9093C201.383 9.59654 202.405 8.52722 203.718 8.52722C204.35 8.52722 204.956 8.77819 205.403 9.22491C205.85 9.67163 206.101 10.2775 206.101 10.9093C206.101 11.541 205.85 12.1469 205.403 12.5936C204.956 13.0404 204.35 13.2913 203.718 13.2913ZM221.23 21.5566V28.4601H217.339V21.3077C217.29 19.8006 216.269 18.634 214.761 18.634C213.253 18.634 211.988 19.8006 211.94 21.3077V28.4546H208.049V15.234H211.94V17.081C212.352 16.4667 212.909 15.9633 213.562 15.6154C214.215 15.2675 214.944 15.0857 215.684 15.0862H216.754C219.235 15.0862 221.229 17.1284 221.229 19.5595L221.23 21.5566Z" fill="white"/>
<path fill-rule="evenodd" clip-rule="evenodd" d="M114.499 0.739258C104.836 0.739258 97.0031 8.56822 97.0031 18.2255C97.0031 27.8828 104.836 35.7118 114.499 35.7118C124.162 35.7118 131.996 27.8828 131.996 18.2255C131.996 8.56822 124.162 0.739258 114.499 0.739258ZM123.548 13.9117C124.295 24.3078 113.088 30.6257 104.007 25.4564C104.007 25.4564 108.49 25.6859 110.388 23.5037C110.388 23.5037 107.63 23.737 106.25 20.4015C106.25 20.4015 107.285 20.8036 108.319 20.2872C108.319 20.2872 105.101 19.77 104.817 15.922C104.817 15.922 105.852 16.7254 107.001 16.4384C107.001 16.4384 103.438 14.3138 105.449 10.465C105.449 10.465 109.243 15.2866 114.702 15.1179C113.84 10.5801 119.3 7.88075 122.518 11.1517C122.518 11.1517 123.955 10.7496 125.22 9.94551C124.85 10.9884 124.142 11.8779 123.208 12.473C123.208 12.473 124.932 12.2436 125.68 11.784C125.671 11.7863 124.923 13.337 123.548 13.9117Z" fill="white"/>
</svg>
