<svg width="38" height="12" viewBox="0 0 38 12" fill="none" xmlns="http://www.w3.org/2000/svg">
<path d="M16.6821 11.6227H14.9466V0.311279H19.3085C21.6225 0.311279 23.0919 1.6587 23.0919 3.78103C23.1256 4.48454 22.9293 5.17988 22.5327 5.76202C22.1361 6.34416 21.5608 6.78147 20.8936 7.00791L23.4275 11.6342H21.4027L19.0887 7.28548H16.6821V11.6227ZM16.6821 5.83975H19.1465C20.5002 5.83975 21.2812 5.09954 21.2812 3.80417C21.2812 2.50879 20.454 1.77436 19.1003 1.77436H16.6821V5.83975Z" fill="#0D73BB"/>
<path d="M26.3026 5.96705C26.3026 2.4973 28.258 0.317139 31.3125 0.317139C33.7943 0.317139 35.6686 1.84383 35.9405 4.1223H34.2571C34.1199 3.44725 33.7462 2.84332 33.2032 2.41925C32.6602 1.99518 31.9835 1.77882 31.2951 1.80913C29.3109 1.80913 28.0208 3.43992 28.0208 5.97284C28.0208 8.50576 29.2935 10.1423 31.3067 10.1423C31.9671 10.196 32.6252 10.0149 33.165 9.63081C33.7048 9.24674 34.0916 8.68445 34.2571 8.04313H35.9463C35.5298 10.2985 33.8174 11.6285 31.3183 11.6285C28.2464 11.6228 26.3026 9.45416 26.3026 5.96705Z" fill="#0D73BB"/>
<path d="M9.58966 0.322928H11.464C10.9896 1.81492 9.64751 3.86208 9.24834 5.96706C9.72272 8.58673 11.0822 10.6339 11.4814 11.617H9.64751C9.21363 11.004 8.4905 9.9862 8.06241 9.40212C7.50319 10.8787 6.32497 11.617 4.52775 11.617C3.89962 11.6346 3.27612 11.5046 2.70742 11.2374C2.13872 10.9703 1.64069 10.5734 1.25341 10.0787C0.36797 8.88601 -0.0720535 7.42116 0.00962847 5.93815C0.00962847 4.14544 0.426151 2.76332 1.2592 1.78023C1.66094 1.29939 2.16758 0.916976 2.7402 0.662349C3.31281 0.407722 3.93619 0.287654 4.56246 0.311364C5.28992 0.278926 6.01123 0.457679 6.63929 0.826044C7.24054 1.23647 7.749 1.76838 8.13183 2.38743C8.27646 2.17925 8.94752 1.22506 9.58966 0.322928ZM4.87485 1.83806C4.46768 1.82629 4.06409 1.91704 3.70119 2.10196C3.33828 2.28689 3.0277 2.56005 2.79802 2.89633C2.23434 3.81096 1.9676 4.87753 2.03439 5.94971C1.97769 7.01576 2.22869 8.07563 2.75752 9.0031C2.96769 9.34835 3.26469 9.63254 3.61892 9.82735C3.97316 10.0222 4.37227 10.1208 4.7765 10.1134C5.18964 10.1144 5.59688 10.0155 5.96354 9.82521C6.33019 9.6349 6.64538 9.3588 6.88226 9.02044C7.50461 8.09211 7.80163 6.98377 7.72687 5.86875C7.80289 4.80532 7.52639 3.74647 6.94011 2.85585C6.70193 2.53112 6.38859 2.26891 6.0269 2.09165C5.66521 1.9144 5.26595 1.82739 4.86328 1.83806H4.87485Z" fill="#0D73BB"/>
<path d="M37.1496 11.6113C37.6193 11.6113 38 11.2307 38 10.7612C38 10.2917 37.6193 9.91113 37.1496 9.91113C36.6799 9.91113 36.2992 10.2917 36.2992 10.7612C36.2992 11.2307 36.6799 11.6113 37.1496 11.6113Z" fill="#0D73BB"/>
<path d="M25.3076 11.6113C25.7773 11.6113 26.158 11.2307 26.158 10.7612C26.158 10.2917 25.7773 9.91113 25.3076 9.91113C24.838 9.91113 24.4572 10.2917 24.4572 10.7612C24.4572 11.2307 24.838 11.6113 25.3076 11.6113Z" fill="#0D73BB"/>
<path d="M13.107 11.6113C13.5766 11.6113 13.9574 11.2307 13.9574 10.7612C13.9574 10.2917 13.5766 9.91113 13.107 9.91113C12.6373 9.91113 12.2566 10.2917 12.2566 10.7612C12.2566 11.2307 12.6373 11.6113 13.107 11.6113Z" fill="#0D73BB"/>
</svg>
