<svg width="505" height="43" viewBox="0 0 505 43" fill="none" xmlns="http://www.w3.org/2000/svg">
<g clip-path="url(#clip0_83_4162)">
<path d="M499.986 10.044C499.113 10.0345 498.258 9.7984 497.505 9.35894C496.751 8.91949 496.124 8.29174 495.687 7.53728C495.249 6.78283 495.015 5.92757 495.008 5.05543C495 4.18328 495.22 3.32422 495.645 2.56248C496.076 1.77264 496.726 1.12341 497.516 0.692104C498.281 0.243239 499.154 0.010517 500.042 0.0187666C500.687 0.0254176 501.324 0.165519 501.913 0.430252C502.82 0.813865 503.594 1.45712 504.137 2.27914C504.679 3.10116 504.967 4.06521 504.963 5.05007C504.977 5.93543 504.75 6.80803 504.308 7.5751C503.863 8.35478 503.217 9.00073 502.437 9.44548C501.685 9.85293 500.841 10.0591 499.986 10.044ZM497.011 8.00528C497.599 8.59308 498.349 8.9933 499.165 9.15537C499.981 9.31744 500.827 9.23411 501.596 8.91589C502.365 8.59768 503.022 8.05885 503.485 7.36747C503.947 6.67609 504.195 5.86318 504.195 5.03138C504.234 4.45639 504.154 3.87964 503.96 3.33688C503.766 2.79412 503.463 2.29691 503.069 1.87607C502.676 1.45523 502.199 1.11973 501.671 0.890355C501.142 0.660982 500.571 0.542627 499.995 0.542627C499.418 0.542627 498.848 0.660982 498.319 0.890355C497.79 1.11973 497.314 1.45523 496.92 1.87607C496.527 2.29691 496.224 2.79412 496.03 3.33688C495.836 3.87964 495.756 4.45639 495.794 5.03138C495.779 5.58432 495.88 6.13431 496.089 6.64631C496.299 7.15832 496.612 7.62113 497.011 8.00528ZM498.882 7.42546H498.115V2.41285H500.36C500.807 2.39784 501.246 2.54385 501.595 2.82433C501.751 2.96583 501.876 3.1392 501.96 3.33277C502.043 3.52634 502.085 3.73563 502.081 3.94656C502.091 4.29782 501.979 4.64164 501.763 4.91915C501.542 5.18095 501.239 5.3592 500.902 5.42416L502.306 7.42546H501.351L500.004 5.55508H498.882V7.42546ZM498.882 3.12359V4.88175H500.154C500.865 4.88175 501.22 4.58248 501.22 4.00267C501.225 3.88684 501.204 3.77143 501.159 3.66471C501.113 3.558 501.045 3.46263 500.959 3.38544C500.73 3.22363 500.453 3.14449 500.173 3.161L498.882 3.12359Z" fill="#102F51"/>
<path d="M186.582 35.5372L183.233 26.1853H170.529L167.18 35.5372H164.13L175.45 5.29321H178.312L189.539 35.5372H186.582ZM176.741 9.03397L171.315 23.7913H182.298L176.928 9.03397H176.741Z" fill="#0D73BB"/>
<path d="M191.69 35.5371V12.9617H194.31V16.7024H194.591C194.969 15.4683 195.788 14.4164 196.892 13.7472C198.081 12.9903 199.468 12.6 200.877 12.625C201.587 12.6034 202.297 12.6662 202.992 12.812V15.5615C202.192 15.3526 201.367 15.2581 200.541 15.2809C199.731 15.2606 198.925 15.408 198.175 15.7137C197.425 16.0195 196.746 16.4771 196.181 17.0578C195.607 17.6409 195.156 18.3343 194.857 19.0962C194.558 19.858 194.416 20.6725 194.441 21.4906V35.5745L191.69 35.5371Z" fill="#0D73BB"/>
<path d="M222.32 19.6015H219.532C219.185 18.2837 218.391 17.127 217.287 16.3283C216.053 15.4568 214.568 15.0104 213.058 15.0565C212.032 15.0169 211.011 15.2198 210.078 15.6488C209.145 16.0778 208.326 16.7207 207.688 17.5254C206.294 19.4493 205.6 21.7926 205.723 24.1652C205.595 26.5761 206.295 28.9585 207.707 30.9173C208.338 31.7262 209.152 32.3736 210.082 32.8061C211.013 33.2386 212.033 33.4438 213.058 33.4049C214.55 33.4546 216.022 33.0573 217.287 32.2639C218.407 31.5013 219.201 30.3469 219.513 29.0282H222.301C221.998 31.0165 220.93 32.8081 219.326 34.0221C217.51 35.3256 215.31 35.9841 213.077 35.8925C211.67 35.9597 210.267 35.7086 208.971 35.1581C207.675 34.6075 206.52 33.7717 205.592 32.7128C203.641 30.298 202.655 27.246 202.823 24.1465C202.661 21.0878 203.648 18.0788 205.592 15.7111C206.524 14.659 207.68 13.8302 208.976 13.2863C210.272 12.7423 211.673 12.4971 213.077 12.5689C215.327 12.4808 217.538 13.1821 219.326 14.5515C220.933 15.7901 222.005 17.5973 222.32 19.6015Z" fill="#0D73BB"/>
<path d="M236.802 23.1366V35.5372H233.92V5.29316H244.772C247.325 5.17272 249.827 6.02881 251.77 7.68725C252.646 8.51068 253.334 9.5136 253.786 10.6273C254.238 11.7411 254.444 12.9393 254.39 14.14C254.44 16.1071 253.835 18.0351 252.668 19.6203C251.511 21.1355 249.876 22.2162 248.028 22.6877L255.363 35.5372H252.014L245.053 23.1366H236.802ZM236.802 7.83688V20.5929H244.529C246.391 20.7111 248.227 20.1083 249.656 18.9095C250.847 17.6435 251.509 15.9712 251.509 14.2336C251.509 12.4959 250.847 10.8237 249.656 9.55762C248.199 8.35416 246.341 7.74611 244.454 7.85557L236.802 7.83688Z" fill="#102F51"/>
<path d="M272.82 29.9635H275.608C275.07 31.77 273.892 33.319 272.296 34.3215C270.489 35.4193 268.403 35.9714 266.29 35.9113C264.899 35.9748 263.512 35.7234 262.233 35.1761C260.953 34.6288 259.813 33.7996 258.899 32.7504C257.129 30.2688 256.178 27.2971 256.178 24.2495C256.178 21.202 257.129 18.2303 258.899 15.7487C259.807 14.7014 260.94 13.873 262.213 13.3256C263.487 12.7781 264.868 12.5259 266.252 12.5877C267.583 12.5219 268.912 12.7568 270.14 13.2749C271.367 13.793 272.462 14.581 273.344 15.5803C275.188 17.8919 276.114 20.8022 275.944 23.7539V24.9696H258.993V25.1005C258.95 27.3133 259.685 29.4708 261.069 31.198C261.723 31.9411 262.534 32.5297 263.444 32.9211C264.353 33.3125 265.338 33.497 266.327 33.4611C267.736 33.4986 269.131 33.1835 270.387 32.5447C271.467 31.9846 272.325 31.0745 272.82 29.9635ZM266.234 15.0005C265.291 14.9712 264.353 15.1428 263.482 15.504C262.611 15.8652 261.827 16.4077 261.182 17.0953C259.815 18.6473 259.051 20.6387 259.03 22.7065H273.1C273.194 20.6689 272.527 18.6693 271.229 17.0953C270.603 16.4004 269.83 15.8535 268.966 15.4945C268.101 15.1354 267.168 14.973 266.234 15.0192V15.0005Z" fill="#102F51"/>
<path d="M285.206 35.9112C283.211 35.9808 281.26 35.3152 279.724 34.0408C279.027 33.4538 278.473 32.716 278.103 31.8832C277.733 31.0504 277.558 30.1444 277.591 29.2339C277.553 28.3534 277.723 27.4764 278.087 26.6738C278.451 25.8711 278.999 25.1655 279.687 24.6141C281.468 23.3992 283.574 22.7476 285.73 22.7437L292.803 22.2761V20.0691C292.845 19.3787 292.738 18.6875 292.489 18.0421C292.241 17.3967 291.856 16.8122 291.362 16.3283C290.174 15.392 288.68 14.9318 287.171 15.0377C285.806 14.9871 284.454 15.3105 283.26 15.9729C282.773 16.2403 282.346 16.6062 282.008 17.0473C281.67 17.4885 281.427 17.9953 281.296 18.5353H278.508C278.636 17.6601 278.951 16.8228 279.432 16.0804C279.913 15.3381 280.549 14.7081 281.296 14.2335C283.075 13.0996 285.156 12.5322 287.264 12.6062C289.471 12.4495 291.658 13.1159 293.401 14.4766C294.154 15.1948 294.738 16.07 295.114 17.0399C295.489 18.0098 295.645 19.0505 295.572 20.0878V35.5745H292.934V31.6841H292.69C292.025 33.0042 290.983 34.0976 289.697 34.8263C288.322 35.5782 286.773 35.9525 285.206 35.9112ZM285.674 33.4797C287.541 33.5261 289.355 32.8569 290.745 31.6093C291.399 31.0521 291.923 30.3577 292.278 29.5754C292.634 28.7931 292.813 27.9422 292.803 27.083V24.4457L286.104 24.932C282.362 25.1939 280.491 26.6154 280.491 29.1965C280.472 29.7898 280.594 30.379 280.848 30.9157C281.102 31.4523 281.48 31.9209 281.951 32.2826C283.021 33.0897 284.333 33.5115 285.674 33.4797Z" fill="#102F51"/>
<path d="M317.8 19.6015H315.012C314.665 18.2837 313.872 17.127 312.767 16.3283C311.533 15.4568 310.049 15.0104 308.538 15.0565C307.515 15.0168 306.496 15.2199 305.566 15.649C304.636 16.0781 303.821 16.721 303.187 17.5254C301.778 19.4428 301.077 21.7892 301.204 24.1652C301.075 26.5761 301.775 28.9585 303.187 30.9173C303.818 31.7262 304.632 32.3736 305.563 32.8061C306.493 33.2386 307.513 33.4438 308.538 33.4049C310.03 33.4546 311.503 33.0573 312.767 32.2639C313.887 31.5013 314.682 30.3469 314.994 29.0282H317.781C317.478 31.0165 316.411 32.8081 314.806 34.0221C312.991 35.3256 310.791 35.9841 308.557 35.8925C307.151 35.9597 305.747 35.7086 304.451 35.1581C303.155 34.6075 302.001 33.7717 301.073 32.7128C299.122 30.298 298.135 27.246 298.304 24.1465C298.141 21.0878 299.129 18.0788 301.073 15.7111C302.004 14.659 303.161 13.8302 304.456 13.2863C305.752 12.7423 307.154 12.4971 308.557 12.5689C310.808 12.4808 313.018 13.1821 314.806 14.5515C316.414 15.7901 317.485 17.5973 317.8 19.6015Z" fill="#102F51"/>
<path d="M322.216 7.08862H324.966V12.9616H330.187V15.2809H324.966V29.29C324.873 30.3625 325.173 31.4324 325.808 32.3013C326.173 32.6382 326.605 32.894 327.076 33.052C327.547 33.21 328.046 33.2665 328.54 33.2178C329.176 33.2178 329.719 33.2178 330.187 33.2178V35.5745C329.567 35.6675 328.942 35.7113 328.315 35.7054C326.656 35.8733 324.995 35.398 323.675 34.3774C323.154 33.7752 322.761 33.0733 322.52 32.3145C322.279 31.5557 322.194 30.7558 322.272 29.9634V15.2809H318.53V12.9616H322.272L322.216 7.08862Z" fill="#102F51"/>
<path d="M349.178 32.7691C348.198 33.7576 347.033 34.5422 345.748 35.0777C344.463 35.6133 343.085 35.889 341.694 35.889C340.302 35.889 338.924 35.6133 337.639 35.0777C336.355 34.5422 335.189 33.7576 334.209 32.7691C332.422 30.2842 331.46 27.3008 331.46 24.2401C331.46 21.1794 332.422 18.196 334.209 15.7112C335.191 14.7272 336.358 13.9465 337.642 13.4138C338.926 12.8811 340.303 12.6069 341.694 12.6069C343.084 12.6069 344.461 12.8811 345.745 13.4138C347.029 13.9465 348.196 14.7272 349.178 15.7112C350.979 18.1905 351.949 21.176 351.949 24.2401C351.949 27.3042 350.979 30.2898 349.178 32.7691ZM336.211 30.8987C336.899 31.6634 337.74 32.2749 338.68 32.6935C339.62 33.1121 340.637 33.3285 341.666 33.3285C342.694 33.3285 343.712 33.1121 344.651 32.6935C345.591 32.2749 346.432 31.6634 347.12 30.8987C348.404 28.8839 349.086 26.5447 349.086 24.156C349.086 21.7672 348.404 19.428 347.12 17.4132C346.432 16.6485 345.591 16.037 344.651 15.6184C343.712 15.1998 342.694 14.9834 341.666 14.9834C340.637 14.9834 339.62 15.1998 338.68 15.6184C337.74 16.037 336.899 16.6485 336.211 17.4132C334.928 19.428 334.246 21.7672 334.246 24.156C334.246 26.5447 334.928 28.8839 336.211 30.8987Z" fill="#102F51"/>
<path d="M354.866 35.5373V12.9618H357.485V16.7026H357.766C358.144 15.4684 358.963 14.4165 360.067 13.7474C361.257 12.9905 362.643 12.6002 364.053 12.6251C364.762 12.6046 365.472 12.6674 366.167 12.8122V15.5616C365.367 15.3539 364.542 15.2595 363.716 15.2811C362.906 15.2607 362.101 15.4081 361.35 15.7139C360.6 16.0197 359.921 16.4773 359.356 17.0579C358.782 17.6411 358.332 18.3345 358.033 19.0963C357.734 19.8582 357.592 20.6727 357.616 21.4907V35.5747L354.866 35.5373Z" fill="#102F51"/>
<path d="M388.938 36.1544C387.098 36.2373 385.264 35.8997 383.575 35.1672C381.886 34.4347 380.386 33.3266 379.19 31.9273C376.651 28.6486 375.382 24.5639 375.616 20.4245C375.383 16.2794 376.651 12.189 379.19 8.90296C380.381 7.50174 381.877 6.39092 383.563 5.65514C385.249 4.91936 387.081 4.57804 388.919 4.65719C390.862 4.65222 392.781 5.08704 394.532 5.92905C396.23 6.73651 397.707 7.94303 398.836 9.44537C399.954 10.9345 400.669 12.6867 400.913 14.5328H398.087C397.694 12.4614 396.556 10.6054 394.888 9.31445C393.189 7.9781 391.08 7.27094 388.919 7.31314C387.48 7.27508 386.052 7.57708 384.752 8.19458C383.451 8.81208 382.315 9.72764 381.435 10.8668C379.59 13.7099 378.608 17.0262 378.608 20.4151C378.608 23.804 379.59 27.1204 381.435 29.9634C382.327 31.1111 383.48 32.0302 384.797 32.6449C386.115 33.2595 387.56 33.5521 389.013 33.4984C391.164 33.5364 393.27 32.8805 395.019 31.6281C396.636 30.4882 397.76 28.7767 398.162 26.8399H401.062C400.882 28.1646 400.44 29.4403 399.762 30.5929C399.084 31.7456 398.184 32.7522 397.114 33.5545C394.765 35.3276 391.88 36.2449 388.938 36.1544Z" fill="#102F51"/>
<path d="M410.268 35.9114C408.273 35.981 406.322 35.3154 404.786 34.041C404.094 33.4504 403.545 32.7115 403.179 31.8792C402.813 31.0469 402.639 30.1427 402.672 29.2341C402.633 28.3536 402.803 27.4766 403.167 26.674C403.531 25.8713 404.079 25.1657 404.767 24.6143C406.54 23.3967 408.641 22.7446 410.792 22.7439L417.865 22.2763V20.0693C417.907 19.379 417.8 18.6877 417.551 18.0423C417.303 17.3969 416.918 16.8124 416.424 16.3285C415.243 15.3918 413.755 14.9313 412.251 15.0379C410.887 14.9873 409.535 15.3107 408.341 15.9731C407.848 16.2366 407.417 16.601 407.075 17.0426C406.734 17.4842 406.489 17.9929 406.358 18.5356H403.57C403.698 17.6603 404.013 16.823 404.494 16.0806C404.975 15.3383 405.611 14.7083 406.358 14.2337C408.136 13.0998 410.218 12.5324 412.326 12.6064C414.533 12.4461 416.721 13.1129 418.463 14.4768C419.216 15.195 419.8 16.0702 420.175 17.0401C420.551 18.01 420.707 19.0507 420.634 20.088V35.5747H417.996V31.6843H417.734C417.075 33.009 416.031 34.1041 414.74 34.8265C413.371 35.5752 411.828 35.9493 410.268 35.9114ZM410.736 33.4799C412.607 33.5142 414.422 32.8469 415.825 31.6095C416.477 31.0513 416.998 30.3563 417.35 29.5739C417.703 28.7916 417.878 27.9411 417.865 27.0832V24.4459L411.185 24.9322C407.443 25.1941 405.572 26.6156 405.572 29.1967C405.553 29.79 405.675 30.3793 405.929 30.9159C406.182 31.4525 406.56 31.9211 407.031 32.2828C408.118 33.0993 409.451 33.5215 410.811 33.4799H410.736Z" fill="#102F51"/>
<path d="M435.135 12.5877C436.455 12.546 437.767 12.8135 438.966 13.3688C440.165 13.9242 441.217 14.7519 442.039 15.7861C443.728 18.2681 444.631 21.2007 444.631 24.2028C444.631 27.2048 443.728 30.1374 442.039 32.6195C441.225 33.6589 440.177 34.4919 438.981 35.0509C437.784 35.6098 436.473 35.879 435.153 35.8365C433.519 35.8688 431.909 35.4341 430.513 34.5834C429.186 33.7833 428.145 32.5857 427.538 31.1606H427.295V42.944H424.544V12.9618H427.164V17.5629H427.426C428.08 16.0685 429.16 14.7997 430.531 13.9149C431.902 13.0301 433.503 12.5685 435.135 12.5877ZM434.536 33.405C435.554 33.4432 436.566 33.2393 437.49 32.8101C438.414 32.3809 439.222 31.7386 439.85 30.9361C441.132 28.9381 441.814 26.6141 441.814 24.2402C441.814 21.8663 441.132 19.5423 439.85 17.5442C439.23 16.7363 438.426 16.0887 437.505 15.6558C436.584 15.2229 435.572 15.0175 434.554 15.0566C433.531 15.0274 432.516 15.239 431.589 15.6743C430.663 16.1097 429.852 16.7566 429.222 17.5629C427.91 19.5396 427.211 21.8589 427.211 24.2308C427.211 26.6027 427.91 28.922 429.222 30.8987C429.851 31.711 430.664 32.362 431.595 32.7978C432.525 33.2337 433.546 33.4418 434.573 33.405H434.536Z" fill="#102F51"/>
<path d="M450.533 7.33197C450.346 7.52392 450.122 7.67593 449.874 7.77881C449.627 7.88168 449.361 7.93328 449.093 7.93049C448.822 7.93788 448.553 7.88652 448.304 7.77996C448.056 7.6734 447.833 7.51419 447.652 7.31328C447.46 7.12616 447.308 6.90204 447.205 6.6545C447.102 6.40696 447.05 6.14113 447.053 5.87308C447.051 5.60519 447.104 5.33968 447.206 5.09229C447.309 4.8449 447.461 4.62067 447.652 4.4329C448.034 4.05142 448.552 3.83716 449.093 3.83716C449.633 3.83716 450.151 4.05142 450.533 4.4329C450.727 4.62119 450.882 4.8465 450.987 5.09549C451.092 5.34448 451.147 5.61209 451.147 5.88244C451.147 6.15279 451.092 6.42039 450.987 6.66938C450.882 6.91837 450.727 7.14368 450.533 7.33197ZM447.727 35.5373V12.9618H450.477V35.5373H447.727Z" fill="#102F51"/>
<path d="M456.09 7.08862H458.822V12.9616H464.042V15.2809H458.822V29.29C458.729 30.3625 459.028 31.4324 459.664 32.3013C460.032 32.6387 460.468 32.8947 460.942 33.0526C461.416 33.2105 461.917 33.2668 462.415 33.2178C463.051 33.2178 463.593 33.2178 464.042 33.2178V35.5745C463.423 35.6681 462.798 35.7119 462.171 35.7054C460.512 35.8657 458.854 35.3911 457.531 34.3774C457.017 33.7714 456.63 33.0686 456.392 32.3105C456.154 31.5523 456.071 30.7543 456.147 29.9634V15.2809H452.404V12.9616H456.147L456.09 7.08862Z" fill="#102F51"/>
<path d="M472.78 35.9114C470.785 35.981 468.834 35.3154 467.298 34.041C466.607 33.4504 466.057 32.7115 465.691 31.8792C465.325 31.0469 465.152 30.1427 465.184 29.2341C465.146 28.3536 465.315 27.4766 465.68 26.674C466.044 25.8713 466.592 25.1657 467.279 24.6143C469.052 23.3967 471.153 22.7446 473.304 22.7439L480.377 22.2763V20.0693C480.419 19.379 480.312 18.6877 480.063 18.0423C479.815 17.3969 479.43 16.8124 478.936 16.3285C477.756 15.3918 476.267 14.9313 474.764 15.0379C473.399 14.9873 472.047 15.3107 470.853 15.9731C470.35 16.2304 469.908 16.5922 469.556 17.0341C469.205 17.476 468.951 17.9879 468.814 18.5356H466.026C466.154 17.6603 466.469 16.823 466.95 16.0806C467.431 15.3383 468.067 14.7083 468.814 14.2337C470.593 13.0998 472.674 12.5324 474.782 12.6064C476.989 12.4461 479.177 13.1129 480.919 14.4768C481.672 15.195 482.256 16.0702 482.631 17.0401C483.007 18.01 483.163 19.0507 483.09 20.088V35.5747H480.452V31.6843H480.19C479.531 33.009 478.488 34.1041 477.196 34.8265C475.843 35.5656 474.322 35.9395 472.78 35.9114ZM473.248 33.4799C475.119 33.5142 476.934 32.8469 478.337 31.6095C478.989 31.0513 479.51 30.3563 479.863 29.5739C480.215 28.7916 480.391 27.9411 480.377 27.0832V24.4459L473.697 24.9322C469.955 25.1941 468.084 26.6156 468.084 29.1967C468.065 29.79 468.187 30.3793 468.441 30.9159C468.695 31.4525 469.073 31.9211 469.543 32.2828C470.61 33.0833 471.914 33.5046 473.248 33.4799Z" fill="#102F51"/>
<path d="M487.281 35.5371V3.96509H490.032V35.5371H487.281Z" fill="#102F51"/>
<path d="M53.924 39.8016H48.3109V3.21704H62.4187C69.9029 3.21704 74.6554 7.57502 74.6554 14.4393C74.7642 16.7147 74.1293 18.9636 72.8466 20.8464C71.564 22.7293 69.7032 24.1437 67.5454 24.876L75.7406 39.8391H69.1919L61.7077 25.7738H53.924V39.8016ZM53.924 21.0979H61.8948C66.2731 21.0979 68.799 18.7038 68.799 14.5141C68.799 10.3245 66.1234 7.9491 61.7451 7.9491H53.924V21.0979Z" fill="#0D73BB"/>
<path d="M85.0399 21.5094C85.0399 10.2872 91.3641 3.23584 101.243 3.23584C109.27 3.23584 115.332 8.17363 116.212 15.5429H110.767C110.323 13.3596 109.115 11.4063 107.358 10.0347C105.602 8.66314 103.414 7.96336 101.187 8.06141C94.7694 8.06141 90.5969 13.3359 90.5969 21.5281C90.5969 29.7204 94.7133 35.0136 101.225 35.0136C103.36 35.1873 105.489 34.6013 107.235 33.3591C108.981 32.117 110.232 30.2983 110.767 28.2241H116.23C114.883 35.5186 109.345 39.8204 101.262 39.8204C91.3266 39.8017 85.0399 32.7878 85.0399 21.5094Z" fill="#0D73BB"/>
<path d="M30.9848 3.25435H37.0471C35.5128 8.07993 31.1719 14.7011 29.8809 21.5092C31.4152 29.9821 35.8122 36.6032 37.1032 39.7829H31.1719C29.7686 37.8003 27.4298 34.5084 26.0452 32.6193C24.2365 37.395 20.4258 39.7829 14.613 39.7829C12.5815 39.8399 10.5649 39.4194 8.72552 38.5553C6.88616 37.6912 5.27539 36.4075 4.0228 34.8076C1.159 30.95 -0.264172 26.2123 1.35377e-05 21.4157C1.35377e-05 15.6176 1.34718 11.1474 4.04151 7.96771C5.34088 6.41253 6.97949 5.17569 8.83152 4.35215C10.6835 3.5286 12.6997 3.14027 14.7253 3.21695C17.0781 3.11204 19.4111 3.69018 21.4424 4.88159C23.387 6.20902 25.0316 7.92938 26.2698 9.9316C26.7375 9.25827 28.9079 6.17214 30.9848 3.25435ZM15.7357 8.15475C14.4188 8.11669 13.1134 8.41021 11.9397 9.00831C10.7659 9.60642 9.76141 10.4899 9.01854 11.5775C7.19544 14.5357 6.33272 17.9854 6.54874 21.4531C6.36533 24.9011 7.17717 28.329 8.88756 31.3287C9.56732 32.4454 10.5279 33.3645 11.6736 33.9946C12.8193 34.6247 14.1102 34.9437 15.4176 34.9199C16.7538 34.923 18.0709 34.6032 19.2568 33.9877C20.4427 33.3722 21.4621 32.4792 22.2282 31.3848C24.2411 28.3823 25.2018 24.7976 24.96 21.1913C25.2059 17.7518 24.3116 14.3271 22.4154 11.4466C21.645 10.3963 20.6316 9.54825 19.4618 8.97497C18.2919 8.40168 17.0006 8.12025 15.6982 8.15475H15.7357Z" fill="#0D73BB"/>
<path d="M120.122 39.7643C121.641 39.7643 122.873 38.5333 122.873 37.0148C122.873 35.4964 121.641 34.2654 120.122 34.2654C118.603 34.2654 117.372 35.4964 117.372 37.0148C117.372 38.5333 118.603 39.7643 120.122 39.7643Z" fill="#102F51"/>
<path d="M81.8216 39.7643C83.3407 39.7643 84.5721 38.5333 84.5721 37.0148C84.5721 35.4964 83.3407 34.2654 81.8216 34.2654C80.3026 34.2654 79.0712 35.4964 79.0712 37.0148C79.0712 38.5333 80.3026 39.7643 81.8216 39.7643Z" fill="#102F51"/>
<path d="M42.3609 39.7643C43.8799 39.7643 45.1113 38.5333 45.1113 37.0148C45.1113 35.4964 43.8799 34.2654 42.3609 34.2654C40.8418 34.2654 39.6104 35.4964 39.6104 37.0148C39.6104 38.5333 40.8418 39.7643 42.3609 39.7643Z" fill="#102F51"/>
<path d="M148.039 2.80566H146.504V40.1945H148.039V2.80566Z" fill="#B0B1B5"/>
</g>
<defs>
<clipPath id="clip0_83_4162">
<rect width="505" height="43" fill="white"/>
</clipPath>
</defs>
</svg>
