<svg width="570" height="47" viewBox="0 0 570 47" fill="none" xmlns="http://www.w3.org/2000/svg">
<g clip-path="url(#clip0_83_2230)">
<path d="M564.34 10.9781C563.355 10.9676 562.39 10.7096 561.54 10.2293C560.689 9.74895 559.982 9.0628 559.488 8.23816C558.994 7.41353 558.73 6.47871 558.721 5.52544C558.713 4.57217 558.961 3.63318 559.441 2.80059C559.928 1.93728 560.661 1.22765 561.552 0.756225C562.416 0.265605 563.402 0.0112342 564.404 0.0202512C565.132 0.0275209 565.851 0.180655 566.515 0.470014C567.54 0.889312 568.413 1.59241 569.025 2.49089C569.638 3.38937 569.962 4.44311 569.958 5.51959C569.974 6.4873 569.718 7.44107 569.219 8.2795C568.716 9.1317 567.987 9.83774 567.107 10.3239C566.258 10.7692 565.305 10.9946 564.34 10.9781ZM560.982 8.74969C561.647 9.39217 562.493 9.82962 563.414 10.0068C564.336 10.1839 565.29 10.0928 566.158 9.74502C567.026 9.3972 567.768 8.80825 568.29 8.05256C568.812 7.29686 569.091 6.40833 569.092 5.49916C569.135 4.87068 569.045 4.24028 568.826 3.64703C568.608 3.05377 568.265 2.51032 567.821 2.05033C567.376 1.59034 566.839 1.22363 566.242 0.972918C565.645 0.722208 565.001 0.592843 564.351 0.592843C563.7 0.592843 563.056 0.722208 562.459 0.972918C561.863 1.22363 561.325 1.59034 560.881 2.05033C560.436 2.51032 560.094 3.05377 559.875 3.64703C559.657 4.24028 559.566 4.87068 559.61 5.49916C559.593 6.10353 559.706 6.70468 559.942 7.26432C560.179 7.82395 560.533 8.32982 560.982 8.74969ZM563.094 8.11594H562.228V2.63704H564.763C565.268 2.62063 565.762 2.78022 566.156 3.0868C566.333 3.24146 566.474 3.43096 566.568 3.64253C566.663 3.85411 566.71 4.08287 566.706 4.31342C566.717 4.69736 566.59 5.07316 566.346 5.37648C566.097 5.66264 565.755 5.85747 565.375 5.92847L566.959 8.11594H565.882L564.361 6.07158H563.094V8.11594ZM563.094 3.41389V5.3356H564.53C565.333 5.3356 565.734 5.0085 565.734 4.37475C565.739 4.24814 565.715 4.122 565.664 4.00536C565.613 3.88872 565.536 3.78447 565.438 3.7001C565.18 3.52324 564.867 3.43674 564.551 3.45479L563.094 3.41389Z" fill="white"/>
<path d="M210.598 38.8431L206.818 28.6212H192.478L188.698 38.8431H185.255L198.032 5.78564H201.263L213.935 38.8431H210.598ZM199.489 9.87438L193.365 26.0044H205.762L199.701 9.87438H199.489Z" fill="white"/>
<path d="M216.363 38.843V14.1674H219.32V18.2562H219.637C220.064 16.9072 220.988 15.7575 222.235 15.0261C223.577 14.1988 225.142 13.7722 226.733 13.7995C227.534 13.7759 228.335 13.8445 229.119 14.0039V17.0091C228.217 16.7807 227.285 16.6775 226.353 16.7025C225.438 16.6802 224.529 16.8413 223.683 17.1755C222.836 17.5098 222.07 18.0099 221.432 18.6446C220.784 19.282 220.275 20.0399 219.938 20.8726C219.6 21.7053 219.44 22.5956 219.468 23.4898V38.8838L216.363 38.843Z" fill="white"/>
<path d="M250.935 21.4248H247.788C247.397 19.9844 246.501 18.7201 245.254 17.8472C243.861 16.8946 242.186 16.4066 240.481 16.457C239.323 16.4137 238.17 16.6355 237.117 17.1044C236.064 17.5733 235.14 18.276 234.42 19.1555C232.846 21.2585 232.064 23.8197 232.203 26.413C232.058 29.0482 232.848 31.6522 234.441 33.7932C235.153 34.6773 236.072 35.385 237.123 35.8577C238.173 36.3305 239.324 36.5548 240.481 36.5122C242.165 36.5666 243.827 36.1323 245.254 35.2652C246.519 34.4315 247.415 33.1698 247.767 31.7284H250.914C250.572 33.9017 249.367 35.8599 247.556 37.1869C245.507 38.6116 243.024 39.3313 240.502 39.2312C238.915 39.3047 237.331 39.0303 235.868 38.4285C234.405 37.8268 233.102 36.9131 232.055 35.7558C229.853 33.1163 228.739 29.7805 228.929 26.3926C228.746 23.0493 229.861 19.7605 232.055 17.1725C233.106 16.0226 234.411 15.1167 235.874 14.5221C237.336 13.9275 238.918 13.6595 240.502 13.738C243.043 13.6417 245.538 14.4083 247.556 15.905C249.37 17.2588 250.58 19.2342 250.935 21.4248Z" fill="white"/>
<path d="M267.281 25.2889V38.8431H264.029V5.78566H276.278C279.159 5.65402 281.983 6.58973 284.176 8.40245C285.165 9.30248 285.941 10.3987 286.451 11.616C286.962 12.8334 287.194 14.1431 287.133 15.4555C287.19 17.6056 286.506 19.7129 285.19 21.4455C283.884 23.1017 282.038 24.2829 279.953 24.7983L288.231 38.8431H284.451L276.595 25.2889H267.281ZM267.281 8.566V22.5086H276.003C278.105 22.6378 280.177 21.9789 281.79 20.6686C283.134 19.2848 283.882 17.457 283.882 15.5577C283.882 13.6585 283.134 11.8306 281.79 10.4468C280.146 9.13139 278.048 8.46678 275.919 8.58643L267.281 8.566Z" fill="white"/>
<path d="M307.935 32.7506H311.082C310.475 34.725 309.146 36.4181 307.344 37.5139C305.304 38.7138 302.95 39.3173 300.565 39.2517C298.995 39.321 297.43 39.0463 295.985 38.448C294.541 37.8498 293.255 36.9434 292.223 35.7967C290.225 33.0842 289.152 29.8361 289.152 26.505C289.152 23.174 290.225 19.9258 292.223 17.2134C293.247 16.0687 294.526 15.1632 295.963 14.5649C297.401 13.9665 298.959 13.6908 300.522 13.7584C302.025 13.6865 303.524 13.9432 304.91 14.5095C306.296 15.0758 307.532 15.9371 308.526 17.0294C310.608 19.556 311.653 22.737 311.462 25.9633V27.2921H292.328V27.4352C292.281 29.8538 293.11 32.212 294.672 34.0999C295.41 34.9121 296.326 35.5555 297.352 35.9833C298.378 36.4111 299.49 36.6127 300.607 36.5735C302.197 36.6144 303.772 36.2701 305.19 35.5718C306.409 34.9596 307.377 33.9649 307.935 32.7506ZM300.501 16.3956C299.437 16.3636 298.379 16.5512 297.395 16.946C296.412 17.3408 295.527 17.9337 294.799 18.6853C293.256 20.3816 292.394 22.5583 292.371 24.8184H308.252C308.357 22.5914 307.605 20.4057 306.14 18.6853C305.433 17.9257 304.56 17.328 303.585 16.9355C302.61 16.543 301.556 16.3656 300.501 16.4161V16.3956Z" fill="white"/>
<path d="M321.916 39.2518C319.664 39.328 317.462 38.6004 315.728 37.2074C314.941 36.5659 314.316 35.7594 313.898 34.8492C313.481 33.9389 313.284 32.9486 313.321 31.9534C313.277 30.991 313.469 30.0324 313.88 29.1551C314.291 28.2778 314.91 27.5066 315.686 26.9038C317.697 25.576 320.073 24.8637 322.507 24.8595L330.49 24.3484V21.936C330.538 21.1815 330.417 20.4259 330.136 19.7205C329.856 19.015 329.422 18.3762 328.864 17.8473C327.523 16.8239 325.837 16.3209 324.133 16.4367C322.593 16.3813 321.067 16.7348 319.72 17.4589C319.169 17.7511 318.688 18.151 318.306 18.6332C317.924 19.1154 317.651 19.6693 317.502 20.2596H314.355C314.5 19.303 314.856 18.3878 315.399 17.5764C315.942 16.7649 316.659 16.0764 317.502 15.5576C319.51 14.3183 321.859 13.6981 324.239 13.779C326.73 13.6077 329.198 14.336 331.166 15.8234C332.015 16.6083 332.675 17.565 333.098 18.6251C333.522 19.6852 333.699 20.8227 333.616 21.9565V38.8838H330.638V34.6315H330.363C329.612 36.0744 328.437 37.2695 326.984 38.0661C325.433 38.8878 323.684 39.2969 321.916 39.2518ZM322.444 36.5941C324.551 36.6448 326.599 35.9134 328.167 34.5498C328.906 33.9407 329.497 33.1817 329.898 32.3267C330.3 31.4716 330.502 30.5415 330.49 29.6024V26.7198L322.93 27.2514C318.706 27.5376 316.594 29.0913 316.594 31.9125C316.572 32.561 316.71 33.2051 316.997 33.7916C317.283 34.3782 317.71 34.8903 318.241 35.2857C319.45 36.1679 320.931 36.6289 322.444 36.5941Z" fill="white"/>
<path d="M358.705 21.4248H355.558C355.166 19.9844 354.271 18.7201 353.024 17.8472C351.631 16.8946 349.956 16.4066 348.251 16.457C347.096 16.4137 345.946 16.6356 344.897 17.1046C343.847 17.5736 342.927 18.2764 342.211 19.1555C340.62 21.2513 339.829 23.8161 339.973 26.413C339.828 29.0482 340.617 31.6522 342.211 33.7932C342.923 34.6773 343.842 35.385 344.893 35.8577C345.943 36.3305 347.094 36.5548 348.251 36.5122C349.935 36.5666 351.597 36.1323 353.024 35.2652C354.289 34.4315 355.185 33.1698 355.537 31.7284H358.684C358.341 33.9017 357.137 35.8599 355.326 37.1869C353.277 38.6116 350.793 39.3313 348.272 39.2312C346.685 39.3047 345.101 39.0303 343.638 38.4285C342.175 37.8268 340.872 36.9131 339.825 35.7558C337.623 33.1163 336.509 29.7805 336.699 26.3926C336.516 23.0493 337.631 19.7605 339.825 17.1725C340.876 16.0226 342.181 15.1167 343.644 14.5221C345.106 13.9275 346.688 13.6595 348.272 13.738C350.813 13.6417 353.308 14.4083 355.326 15.905C357.14 17.2588 358.35 19.2342 358.705 21.4248Z" fill="white"/>
<path d="M363.689 7.74805H366.794V14.1674H372.686V16.7024H366.794V32.0147C366.689 33.187 367.026 34.3563 367.744 35.3061C368.156 35.6743 368.643 35.954 369.175 36.1266C369.706 36.2993 370.269 36.3611 370.827 36.3079C371.545 36.3079 372.158 36.3079 372.686 36.3079V38.8838C371.987 38.9854 371.281 39.0333 370.574 39.0269C368.7 39.2104 366.826 38.6908 365.336 37.5754C364.748 36.9171 364.305 36.1499 364.032 35.3205C363.76 34.4911 363.665 33.6168 363.752 32.7507V16.7024H359.529V14.1674H363.752L363.689 7.74805Z" fill="white"/>
<path d="M394.122 35.8175C393.016 36.8979 391.7 37.7556 390.25 38.3409C388.8 38.9262 387.245 39.2276 385.674 39.2276C384.103 39.2276 382.548 38.9262 381.098 38.3409C379.648 37.7556 378.332 36.8979 377.226 35.8175C375.209 33.1015 374.123 29.8406 374.123 26.4951C374.123 23.1497 375.209 19.8888 377.226 17.1728C378.335 16.0973 379.651 15.2439 381.101 14.6617C382.551 14.0795 384.105 13.7798 385.674 13.7798C387.243 13.7798 388.797 14.0795 390.247 14.6617C391.696 15.2439 393.013 16.0973 394.122 17.1728C396.155 19.8827 397.25 23.146 397.25 26.4951C397.25 29.8443 396.155 33.1075 394.122 35.8175ZM379.486 33.7731C380.262 34.6089 381.212 35.2773 382.272 35.7349C383.333 36.1924 384.481 36.4289 385.642 36.4289C386.803 36.4289 387.952 36.1924 389.012 35.7349C390.073 35.2773 391.022 34.6089 391.798 33.7731C393.248 31.5709 394.017 29.0141 394.017 26.4031C394.017 23.7921 393.248 21.2354 391.798 19.0332C391.022 18.1973 390.073 17.5289 389.012 17.0714C387.952 16.6138 386.803 16.3774 385.642 16.3774C384.481 16.3774 383.333 16.6138 382.272 17.0714C381.212 17.5289 380.262 18.1973 379.486 19.0332C378.037 21.2354 377.267 23.7921 377.267 26.4031C377.267 29.0141 378.037 31.5709 379.486 33.7731Z" fill="white"/>
<path d="M400.542 38.8431V14.1676H403.498V18.2563H403.815C404.242 16.9073 405.167 15.7576 406.413 15.0262C407.755 14.1989 409.32 13.7723 410.911 13.7996C411.712 13.7771 412.513 13.8457 413.298 14.004V17.0092C412.395 16.7822 411.463 16.679 410.531 16.7026C409.617 16.6803 408.708 16.8414 407.861 17.1756C407.014 17.5099 406.248 18.01 405.61 18.6447C404.962 19.2821 404.454 20.04 404.116 20.8727C403.778 21.7054 403.619 22.5957 403.646 23.4899V38.884L400.542 38.8431Z" fill="white"/>
<path d="M438.999 39.5175C436.923 39.6081 434.853 39.2391 432.946 38.4385C431.039 37.6378 429.347 36.4267 427.996 34.8972C425.131 31.3136 423.699 26.8489 423.963 22.3244C423.699 17.7937 425.131 13.3228 427.996 9.73109C429.341 8.19952 431.03 6.98537 432.933 6.18114C434.836 5.37692 436.903 5.00384 438.978 5.09036C441.171 5.08493 443.337 5.5602 445.314 6.48053C447.23 7.3631 448.897 8.68186 450.171 10.324C451.433 11.9516 452.241 13.8668 452.515 15.8846H449.326C448.882 13.6205 447.597 11.5919 445.715 10.1808C443.798 8.7202 441.417 7.94725 438.978 7.99338C437.354 7.95178 435.742 8.28186 434.274 8.95681C432.806 9.63175 431.524 10.6325 430.531 11.8777C428.448 14.9852 427.34 18.61 427.34 22.3142C427.34 26.0183 428.448 29.6432 430.531 32.7507C431.538 34.0051 432.838 35.0097 434.326 35.6815C435.813 36.3534 437.444 36.6732 439.084 36.6145C441.512 36.656 443.889 35.9391 445.863 34.5702C447.688 33.3243 448.957 31.4535 449.411 29.3366H452.684C452.48 30.7845 451.981 32.1789 451.217 33.4387C450.452 34.6986 449.436 35.7989 448.228 36.6758C445.577 38.6139 442.32 39.6165 438.999 39.5175Z" fill="white"/>
<path d="M463.075 39.2518C460.823 39.328 458.621 38.6004 456.887 37.2075C456.106 36.562 455.486 35.7543 455.073 34.8446C454.66 33.9349 454.464 32.9466 454.501 31.9535C454.457 30.9911 454.649 30.0325 455.06 29.1552C455.471 28.2779 456.09 27.5066 456.866 26.9039C458.867 25.573 461.238 24.8603 463.666 24.8595L471.649 24.3484V21.9361C471.697 21.1815 471.576 20.426 471.295 19.7205C471.015 19.0151 470.581 18.3763 470.023 17.8473C468.691 16.8235 467.01 16.3202 465.313 16.4367C463.773 16.3813 462.247 16.7348 460.9 17.4589C460.344 17.7469 459.857 18.1452 459.471 18.6279C459.086 19.1105 458.809 19.6666 458.661 20.2597H455.514C455.659 19.3031 456.015 18.3878 456.558 17.5764C457.101 16.765 457.818 16.0764 458.661 15.5576C460.669 14.3183 463.018 13.6981 465.398 13.779C467.889 13.6038 470.359 14.3326 472.325 15.8234C473.174 16.6084 473.834 17.565 474.257 18.6251C474.681 19.6853 474.857 20.8227 474.775 21.9565V38.8839H471.797V34.6316H471.501C470.758 36.0795 469.58 37.2765 468.122 38.0661C466.577 38.8844 464.836 39.2934 463.075 39.2518ZM463.603 36.5942C465.714 36.6317 467.764 35.9024 469.347 34.5498C470.083 33.9397 470.671 33.18 471.069 32.3249C471.467 31.4698 471.665 30.5402 471.649 29.6024V26.7199L464.11 27.2514C459.886 27.5376 457.774 29.0913 457.774 31.9126C457.752 32.561 457.891 33.2051 458.177 33.7917C458.463 34.3782 458.89 34.8904 459.421 35.2858C460.649 36.1782 462.153 36.6397 463.687 36.5942H463.603Z" fill="white"/>
<path d="M491.142 13.7585C492.632 13.713 494.113 14.0053 495.466 14.6123C496.819 15.2193 498.007 16.124 498.935 17.2544C500.842 19.9673 501.861 23.1728 501.861 26.454C501.861 29.7353 500.842 32.9407 498.935 35.6537C498.016 36.7898 496.834 37.7003 495.483 38.3113C494.133 38.9222 492.653 39.2164 491.163 39.17C489.318 39.2053 487.501 38.7301 485.926 37.8003C484.428 36.9258 483.253 35.6168 482.568 34.0591H482.293V46.9386H479.189V14.1674H482.145V19.1965H482.441C483.179 17.5631 484.398 16.1762 485.945 15.2091C487.493 14.2421 489.3 13.7375 491.142 13.7585ZM490.466 36.5123C491.615 36.5541 492.758 36.3312 493.801 35.8621C494.843 35.3929 495.756 34.6909 496.464 33.8138C497.911 31.6298 498.681 29.0896 498.681 26.4949C498.681 23.9002 497.911 21.36 496.464 19.1761C495.765 18.293 494.858 17.5852 493.818 17.112C492.778 16.6389 491.636 16.4143 490.487 16.4571C489.332 16.4251 488.186 16.6564 487.14 17.1322C486.095 17.6081 485.18 18.3152 484.468 19.1965C482.988 21.3571 482.199 23.8921 482.199 26.4847C482.199 29.0773 482.988 31.6123 484.468 33.7729C485.178 34.6608 486.096 35.3723 487.147 35.8487C488.197 36.325 489.349 36.5525 490.508 36.5123H490.466Z" fill="white"/>
<path d="M508.523 8.01376C508.311 8.22356 508.058 8.38972 507.779 8.50216C507.499 8.6146 507.199 8.671 506.897 8.66796C506.591 8.67603 506.288 8.6199 506.007 8.50342C505.726 8.38695 505.475 8.21293 505.27 7.99333C505.054 7.7888 504.882 7.54383 504.766 7.27327C504.65 7.0027 504.591 6.71214 504.595 6.41916C504.593 6.12634 504.651 5.83614 504.768 5.56574C504.884 5.29534 505.055 5.05025 505.27 4.845C505.702 4.42804 506.287 4.19385 506.897 4.19385C507.506 4.19385 508.091 4.42804 508.523 4.845C508.742 5.05081 508.916 5.29708 509.035 5.56923C509.154 5.84139 509.215 6.13389 509.215 6.42939C509.215 6.72489 509.154 7.01738 509.035 7.28953C508.916 7.56169 508.742 7.80796 508.523 8.01376ZM505.355 38.8428V14.1673H508.459V38.8428H505.355Z" fill="white"/>
<path d="M514.795 7.74805H517.879V14.1674H523.771V16.7024H517.879V32.0147C517.774 33.187 518.111 34.3563 518.829 35.3061C519.245 35.6749 519.736 35.9547 520.271 36.1273C520.806 36.2999 521.372 36.3614 521.933 36.3079C522.651 36.3079 523.264 36.3079 523.771 36.3079V38.8838C523.072 38.9861 522.366 39.034 521.659 39.0269C519.786 39.202 517.915 38.6833 516.421 37.5754C515.841 36.913 515.404 36.1448 515.135 35.3161C514.867 34.4875 514.773 33.6151 514.859 32.7507V16.7024H510.635V14.1674H514.859L514.795 7.74805Z" fill="white"/>
<path d="M533.633 39.2518C531.381 39.328 529.179 38.6004 527.445 37.2075C526.665 36.562 526.045 35.7543 525.632 34.8446C525.218 33.9349 525.023 32.9466 525.059 31.9535C525.016 30.9911 525.208 30.0325 525.618 29.1552C526.029 28.2779 526.648 27.5066 527.424 26.9039C529.426 25.573 531.796 24.8603 534.225 24.8595L542.207 24.3484V21.9361C542.255 21.1815 542.134 20.426 541.854 19.7205C541.573 19.0151 541.139 18.3763 540.581 17.8473C539.249 16.8235 537.569 16.3202 535.872 16.4367C534.332 16.3813 532.805 16.7348 531.458 17.4589C530.89 17.7401 530.391 18.1355 529.994 18.6185C529.597 19.1015 529.312 19.6611 529.156 20.2597H526.009C526.154 19.3031 526.51 18.3878 527.053 17.5764C527.596 16.765 528.313 16.0764 529.156 15.5576C531.164 14.3183 533.513 13.6981 535.893 13.779C538.384 13.6038 540.854 14.3326 542.82 15.8234C543.669 16.6084 544.329 17.565 544.752 18.6251C545.176 19.6853 545.352 20.8227 545.27 21.9565V38.8839H542.292V34.6316H541.996C541.253 36.0795 540.075 37.2765 538.617 38.0661C537.091 38.8739 535.373 39.2826 533.633 39.2518ZM534.161 36.5942C536.273 36.6317 538.322 35.9024 539.906 34.5498C540.641 33.9397 541.229 33.18 541.627 32.3249C542.025 31.4698 542.223 30.5402 542.207 29.6024V26.7199L534.668 27.2514C530.444 27.5376 528.332 29.0913 528.332 31.9126C528.311 32.561 528.449 33.2051 528.735 33.7917C529.022 34.3782 529.448 34.8904 529.98 35.2858C531.184 36.1607 532.656 36.6212 534.161 36.5942Z" fill="white"/>
<path d="M550 38.8429V4.33398H553.105V38.8429H550Z" fill="white"/>
<path d="M60.8648 43.5039H54.5291V3.51611H70.4528C78.9003 3.51611 84.2645 8.27949 84.2645 15.7823C84.3873 18.2693 83.6707 20.7275 82.223 22.7854C80.7752 24.8434 78.6749 26.3894 76.2393 27.1899L85.4894 43.5448H78.0978L69.6502 28.1712H60.8648V43.5039ZM60.8648 23.0603H69.8614C74.8032 23.0603 77.6543 20.4435 77.6543 15.8641C77.6543 11.2847 74.6343 8.68836 69.6925 8.68836H60.8648V23.0603Z" fill="white"/>
<path d="M95.9856 23.5101C95.9856 11.2439 103.124 3.53662 114.275 3.53662C123.335 3.53662 130.177 8.93374 131.17 16.9885H125.024C124.523 14.6021 123.159 12.4671 121.177 10.968C119.194 9.46878 116.724 8.70391 114.211 8.81108C106.967 8.81108 102.258 14.5762 102.258 23.5305C102.258 32.4849 106.904 38.2704 114.253 38.2704C116.664 38.4603 119.067 37.8198 121.037 36.4621C123.008 35.1044 124.42 33.1166 125.024 30.8494H131.191C129.67 38.8224 123.419 43.5244 114.296 43.5244C103.082 43.504 95.9856 35.8376 95.9856 23.5101Z" fill="white"/>
<path d="M34.9731 3.55705H41.8157C40.0839 8.83152 35.1843 16.0686 33.7271 23.5101C35.4589 32.7711 40.4218 40.0081 41.879 43.4836H35.1843C33.6004 41.3165 30.9605 37.7184 29.3977 35.6536C27.3562 40.8736 23.055 43.4836 16.4941 43.4836C14.201 43.5459 11.9249 43.0863 9.84877 42.1418C7.77266 41.1973 5.95456 39.7943 4.54075 38.0455C1.30834 33.8291 -0.298012 28.6506 0.000176631 23.4079C0.000176631 17.0703 1.52074 12.1843 4.56187 8.70887C6.02848 7.00902 7.878 5.65712 9.96841 4.75697C12.0588 3.85682 14.3345 3.43236 16.6208 3.51617C19.2765 3.4015 21.9097 4.03343 24.2025 5.33566C26.3974 6.78657 28.2536 8.66697 29.6512 10.8554C30.1791 10.1195 32.6289 6.74627 34.9731 3.55705ZM17.7612 8.9133C16.2748 8.87171 14.8014 9.19253 13.4766 9.84627C12.1518 10.5 11.018 11.4657 10.1795 12.6545C8.12175 15.8879 7.14798 19.6584 7.3918 23.4488C7.18479 27.2174 8.10112 30.9642 10.0317 34.243C10.7989 35.4635 11.8831 36.4682 13.1763 37.1569C14.4695 37.8456 15.9265 38.1942 17.4022 38.1682C18.9104 38.1716 20.3971 37.8221 21.7356 37.1493C23.0741 36.4766 24.2247 35.5005 25.0895 34.3043C27.3614 31.0225 28.4457 27.1043 28.1728 23.1625C28.4503 19.4031 27.4409 15.6599 25.3007 12.5114C24.4311 11.3634 23.2873 10.4364 21.9669 9.80982C20.6465 9.1832 19.189 8.87559 17.719 8.9133H17.7612Z" fill="white"/>
<path d="M135.584 43.4631C137.298 43.4631 138.688 42.1176 138.688 40.4579C138.688 38.7981 137.298 37.4526 135.584 37.4526C133.869 37.4526 132.479 38.7981 132.479 40.4579C132.479 42.1176 133.869 43.4631 135.584 43.4631Z" fill="white"/>
<path d="M92.3531 43.4631C94.0677 43.4631 95.4576 42.1176 95.4576 40.4579C95.4576 38.7981 94.0677 37.4526 92.3531 37.4526C90.6385 37.4526 89.2486 38.7981 89.2486 40.4579C89.2486 42.1176 90.6385 43.4631 92.3531 43.4631Z" fill="white"/>
<path d="M47.8133 43.4631C49.5278 43.4631 50.9178 42.1176 50.9178 40.4579C50.9178 38.7981 49.5278 37.4526 47.8133 37.4526C46.0987 37.4526 44.7088 38.7981 44.7088 40.4579C44.7088 42.1176 46.0987 43.4631 47.8133 43.4631Z" fill="white"/>
<path d="M167.093 3.06641H165.361V43.9333H167.093V3.06641Z" fill="white"/>
</g>
<defs>
<clipPath id="clip0_83_2230">
<rect width="570" height="47" fill="white"/>
</clipPath>
</defs>
</svg>
